# xmcd
#
# Track frame offsets: 
#        150
#        20265
#        34187
#        52623
#        64267
#        80307
#        95232
#        116712
#        138422
#        153243
#        175580
#        191293
#        213749
#
# Disc length: 3047 seconds
#
# Revision: 6
# Processed by: cddbd v1.5.2PL0 Copyright (c) Steve Scherf et al.
# Submitted via: ExactAudioCopy v1.0b4
#
DISCID=a70be50d
DTITLE=Clifton Chenier - Bogalusa Boogie
DYEAR=1975
DGENRE=Cajun, Zydeco, Blues
TTITLE0=One Step At A Time
TTITLE1=M'Appel Fou (They Call Me Crazy)
TTITLE2=Quelque Chose Sur Mon Idee (There's Something On My Mind)
TTITLE3=Ride 'Em Cowboy
TTITLE4=Ma Mama Ma Dit (My Mama Told Me)
TTITLE5=Je Me Reveiller Le Matin (I Woke Up This Morning)
TTITLE6=I May Be Wrong
TTITLE7=Take Off Your Dress
TTITLE8=Allons A Grand Coteau (Let's Go To Grand Coteau)
TTITLE9=Je Suis En Recolteur (I'm A Farmer)
TTITLE10=Ti Na Na
TTITLE11=Come Go Along With Me
TTITLE12=Bogalusa Boogie
EXTD=1975 and 1990
EXTT0=
EXTT1=
EXTT2=
EXTT3=
EXTT4=
EXTT5=
EXTT6=
EXTT7=
EXTT8=
EXTT9=
EXTT10=
EXTT11=
EXTT12=
PLAYORDER=
